<svg width="137" height="32" viewBox="0 0 137 32" fill="none" xmlns="http://www.w3.org/2000/svg">
<path d="M41.328 21H47.792V19.432H43.184V16.344H46.944V14.776H43.184V12.104H47.632V10.536H41.328V21ZM48.224 21H50.144L50.976 19.448C51.2 18.968 51.44 18.504 51.664 18.056H51.728C52 18.504 52.272 18.984 52.528 19.448L53.488 21H55.472L52.976 17.112L55.296 13.144H53.392L52.64 14.632C52.448 15.064 52.224 15.528 52.032 15.96H51.968C51.728 15.528 51.472 15.064 51.248 14.632L50.368 13.144H48.384L50.72 16.904L48.224 21ZM56.8711 24.104H58.7111V21.64L58.6631 20.328C59.3031 20.872 59.9911 21.192 60.6791 21.192C62.4231 21.192 64.0391 19.64 64.0391 16.952C64.0391 14.52 62.9031 12.952 60.9511 12.952C60.0871 12.952 59.2391 13.416 58.5831 13.976H58.5191L58.3911 13.144H56.8711V24.104ZM60.2951 19.672C59.8311 19.672 59.2871 19.496 58.7111 19.016V15.352C59.3191 14.76 59.8631 14.472 60.4391 14.472C61.6231 14.472 62.1351 15.4 62.1351 16.968C62.1351 18.744 61.3351 19.672 60.2951 19.672ZM65.9024 21H67.7424V16.2C68.2224 15.016 68.9744 14.584 69.5984 14.584C69.9344 14.584 70.1424 14.632 70.4144 14.712L70.7344 13.112C70.4944 13 70.2384 12.952 69.8384 12.952C69.0064 12.952 68.1744 13.512 67.6144 14.536H67.5504L67.4224 13.144H65.9024V21ZM75.0749 21.192C76.0669 21.192 77.0109 20.84 77.7629 20.344L77.1389 19.192C76.5629 19.56 75.9869 19.768 75.3149 19.768C74.0509 19.768 73.1549 18.968 72.9949 17.576H77.9869C78.0349 17.384 78.0669 17.032 78.0669 16.68C78.0669 14.488 76.9469 12.952 74.8189 12.952C72.9789 12.952 71.2029 14.52 71.2029 17.08C71.2029 19.672 72.8989 21.192 75.0749 21.192ZM72.9789 16.328C73.1389 15.064 73.9389 14.376 74.8669 14.376C75.9389 14.376 76.4669 15.112 76.4669 16.328H72.9789ZM82.0163 21.192C84.0003 21.192 85.0723 20.104 85.0723 18.76C85.0723 17.288 83.8883 16.776 82.8163 16.376C81.9683 16.072 81.2163 15.832 81.2163 15.208C81.2163 14.712 81.6003 14.344 82.3843 14.344C83.0083 14.344 83.5523 14.616 84.1123 15.016L84.9603 13.896C84.3203 13.4 83.4403 12.952 82.3363 12.952C80.5763 12.952 79.4883 13.928 79.4883 15.304C79.4883 16.616 80.6083 17.208 81.6483 17.592C82.4803 17.912 83.3283 18.2 83.3283 18.856C83.3283 19.4 82.9283 19.8 82.0803 19.8C81.2803 19.8 80.6083 19.464 79.9043 18.92L79.0403 20.104C79.8083 20.728 80.9443 21.192 82.0163 21.192ZM88.9069 21.192C90.8909 21.192 91.9629 20.104 91.9629 18.76C91.9629 17.288 90.7789 16.776 89.7069 16.376C88.8589 16.072 88.1069 15.832 88.1069 15.208C88.1069 14.712 88.4909 14.344 89.2749 14.344C89.8989 14.344 90.4429 14.616 91.0029 15.016L91.8509 13.896C91.2109 13.4 90.3309 12.952 89.2269 12.952C87.4669 12.952 86.3789 13.928 86.3789 15.304C86.3789 16.616 87.4989 17.208 88.5389 17.592C89.3709 17.912 90.2189 18.2 90.2189 18.856C90.2189 19.4 89.8189 19.8 88.9709 19.8C88.1709 19.8 87.4989 19.464 86.7949 18.92L85.9309 20.104C86.6989 20.728 87.8349 21.192 88.9069 21.192ZM96.9686 21H103.177V19.432H98.8246V10.536H96.9686V21ZM106.744 21.192C107.672 21.192 108.472 20.728 109.176 20.136H109.24L109.368 21H110.888V16.344C110.888 14.152 109.912 12.952 107.96 12.952C106.712 12.952 105.592 13.432 104.728 13.976L105.4 15.208C106.104 14.792 106.84 14.44 107.608 14.44C108.68 14.44 109.016 15.144 109.048 15.976C105.816 16.328 104.424 17.208 104.424 18.888C104.424 20.264 105.368 21.192 106.744 21.192ZM107.336 19.752C106.68 19.752 106.2 19.448 106.2 18.744C106.2 17.96 106.904 17.4 109.048 17.128V18.888C108.456 19.432 107.976 19.752 107.336 19.752ZM113.09 21H114.93V15.512C115.586 14.872 116.034 14.536 116.722 14.536C117.586 14.536 117.954 15.016 117.954 16.312V21H119.794V16.072C119.794 14.088 119.058 12.952 117.378 12.952C116.306 12.952 115.506 13.512 114.802 14.2H114.738L114.61 13.144H113.09V21ZM124.795 21.192C125.643 21.192 126.443 20.728 127.019 20.152H127.083L127.211 21H128.731V9.704H126.891V12.552L126.955 13.816C126.347 13.288 125.787 12.952 124.891 12.952C123.179 12.952 121.563 14.52 121.563 17.08C121.563 19.672 122.827 21.192 124.795 21.192ZM125.243 19.672C124.107 19.672 123.467 18.76 123.467 17.064C123.467 15.416 124.283 14.472 125.291 14.472C125.819 14.472 126.347 14.648 126.891 15.128V18.792C126.363 19.4 125.851 19.672 125.243 19.672ZM133.266 21.192C135.25 21.192 136.322 20.104 136.322 18.76C136.322 17.288 135.138 16.776 134.066 16.376C133.218 16.072 132.466 15.832 132.466 15.208C132.466 14.712 132.85 14.344 133.634 14.344C134.258 14.344 134.802 14.616 135.362 15.016L136.21 13.896C135.57 13.4 134.69 12.952 133.586 12.952C131.826 12.952 130.738 13.928 130.738 15.304C130.738 16.616 131.858 17.208 132.898 17.592C133.73 17.912 134.578 18.2 134.578 18.856C134.578 19.4 134.178 19.8 133.33 19.8C132.53 19.8 131.858 19.464 131.154 18.92L130.29 20.104C131.058 20.728 132.194 21.192 133.266 21.192Z" fill="#5A99C4"/>
<circle cx="16" cy="16" r="16" fill="url(#paint0_linear)"/>
<path d="M16.384 21.192C18.736 21.192 20.144 19.784 20.144 18.088C20.144 16.568 19.264 15.784 18.032 15.256L16.608 14.664C15.744 14.312 14.944 14.008 14.944 13.192C14.944 12.424 15.6 11.96 16.592 11.96C17.488 11.96 18.192 12.296 18.864 12.856L19.808 11.672C18.992 10.856 17.808 10.344 16.592 10.344C14.544 10.344 13.072 11.624 13.072 13.288C13.072 14.824 14.16 15.64 15.184 16.072L16.624 16.696C17.568 17.096 18.24 17.368 18.24 18.232C18.24 19.048 17.6 19.576 16.416 19.576C15.456 19.576 14.448 19.096 13.696 18.392L12.608 19.656C13.6 20.632 14.976 21.192 16.384 21.192Z" fill="white"/>
<defs>
<linearGradient id="paint0_linear" x1="16" y1="0" x2="16" y2="32" gradientUnits="userSpaceOnUse">
<stop stop-color="#13244E"/>
<stop offset="1" stop-color="#75C5F0"/>
</linearGradient>
</defs>
</svg>
